<?xml version="1.0" encoding="UTF-8" standalone="no"?>
<!-- Created with Inkscape (http://www.inkscape.org/) -->

<svg
   xmlns:dc="http://purl.org/dc/elements/1.1/"
   xmlns:cc="http://creativecommons.org/ns#"
   xmlns:rdf="http://www.w3.org/1999/02/22-rdf-syntax-ns#"
   xmlns:svg="http://www.w3.org/2000/svg"
   xmlns="http://www.w3.org/2000/svg"
   xmlns:xlink="http://www.w3.org/1999/xlink"
   xmlns:sodipodi="http://sodipodi.sourceforge.net/DTD/sodipodi-0.dtd"
   xmlns:inkscape="http://www.inkscape.org/namespaces/inkscape"
   width="1920"
   height="1200"
   id="svg2"
   version="1.1"
   inkscape:version="0.48.4 r9939"
   sodipodi:docname="fondo.svg">
  <defs
     id="defs4">
    <linearGradient
       y2="375.87961"
       x2="113.64215"
       y1="416.38858"
       x1="70.491508"
       spreadMethod="pad"
       gradientTransform="translate(0,80)"
       gradientUnits="userSpaceOnUse"
       id="linearGradient3050"
       xlink:href="#linearGradient3431"
       inkscape:collect="always" />
    <linearGradient
       y2="408.57144"
       x2="116.42857"
       y1="362.14285"
       x1="61.42857"
       gradientTransform="matrix(2.7085493,0,0,2.7085493,543.08426,-420.26637)"
       gradientUnits="userSpaceOnUse"
       id="linearGradient3048"
       xlink:href="#linearGradient3312"
       inkscape:collect="always" />
    <linearGradient
       id="linearGradient3312">
      <stop
         id="stop3314"
         offset="0"
         style="stop-color:#c7f994;stop-opacity:1;" />
      <stop
         id="stop3316"
         offset="1"
         style="stop-color:#87cf3e;stop-opacity:1;" />
    </linearGradient>
    <linearGradient
       id="linearGradient3431">
      <stop
         style="stop-color:#3d3d3d;stop-opacity:1;"
         offset="0"
         id="stop3433" />
      <stop
         style="stop-color:#000000;stop-opacity:0.11400651;"
         offset="1"
         id="stop3435" />
    </linearGradient>
    <inkscape:perspective
       sodipodi:type="inkscape:persp3d"
       inkscape:vp_x="0 : 0.5 : 1"
       inkscape:vp_y="0 : 1000 : 0"
       inkscape:vp_z="1 : 0.5 : 1"
       inkscape:persp3d-origin="0.5 : 0.33333333 : 1"
       id="perspective2955" />
    <inkscape:perspective
       id="perspective2988"
       inkscape:persp3d-origin="372.04724 : 350.78739 : 1"
       inkscape:vp_z="744.09448 : 526.18109 : 1"
       inkscape:vp_y="0 : 1000 : 0"
       inkscape:vp_x="0 : 526.18109 : 1"
       sodipodi:type="inkscape:persp3d" />
  </defs>
  <sodipodi:namedview
     id="base"
     pagecolor="#ffffff"
     bordercolor="#666666"
     borderopacity="1.0"
     inkscape:pageopacity="0.0"
     inkscape:pageshadow="2"
     inkscape:zoom="0.23594749"
     inkscape:cx="857.97194"
     inkscape:cy="671.32983"
     inkscape:document-units="px"
     inkscape:current-layer="layer1"
     showgrid="false"
     inkscape:window-width="1024"
     inkscape:window-height="545"
     inkscape:window-x="0"
     inkscape:window-y="31"
     inkscape:window-maximized="1" />
  <metadata
     id="metadata7">
    <rdf:RDF>
      <cc:Work
         rdf:about="">
        <dc:format>image/svg+xml</dc:format>
        <dc:type
           rdf:resource="http://purl.org/dc/dcmitype/StillImage" />
        <dc:title />
      </cc:Work>
    </rdf:RDF>
  </metadata>
  <g
     inkscape:label="Capa 1"
     inkscape:groupmode="layer"
     id="layer1"
     transform="translate(0,147.63782)">
    <rect
       style="fill:#493557;fill-opacity:1;fill-rule:evenodd;stroke:none"
       id="rect2985-6"
       width="1919.0792"
       height="1199.0792"
       x="0.46036211"
       y="-147.17732" />
    <g
       transform="matrix(0.6928729,0,0,0.6928729,703.63707,110.46908)"
       id="layer1-5"
       inkscape:label="Layer 1">
      <g
         id="g4221"
         transform="translate(4.3022167,-0.33025212)">
        <path
           style="fill:#ffffff;fill-opacity:1;stroke:none"
           d="M 951.40625 390.15625 C 917.16385 391.5114 885.05352 401.73001 857.09375 418.6875 L 875.34375 467.21875 L 839.40625 430.75 C 815.70119 448.77209 795.8258 472.00619 781.25 498.875 L 847.78125 549.96875 L 767.0625 530.875 C 759.43313 552.60169 755.00226 575.9692 754.4375 600.375 L 887.46875 603.125 L 967.03125 714.96875 L 1036.4375 603.90625 L 1163.9688 602.53125 C 1163.7235 584.84396 1161.4547 567.6631 1157.4062 551.25 L 1100.75 567.21875 L 1149.375 525.53125 C 1136.9043 492.70684 1116.998 463.85554 1091.8438 441.3125 L 1048.375 485.0625 L 1070.25 424.40625 C 1043.5592 406.24118 1012.5893 394.45946 979.25 391.0625 L 960.3125 454.125 L 951.40625 390.15625 z M 1055.5625 525.6875 C 1065.6596 525.6875 1073.8438 533.87162 1073.8438 543.96875 C 1073.8438 554.06588 1065.6596 562.25 1055.5625 562.25 C 1045.4654 562.25 1037.2812 554.06588 1037.2812 543.96875 C 1037.2812 533.87162 1045.4654 525.6875 1055.5625 525.6875 z M 874.96875 526.375 C 885.45423 526.375 893.9375 534.25997 893.9375 543.96875 C 893.9375 553.67753 885.45423 561.53125 874.96875 561.53125 C 864.48327 561.53125 855.96875 553.67753 855.96875 543.96875 C 855.96875 534.25997 864.48327 526.375 874.96875 526.375 z M 914.75 574.8125 L 1005.2812 575.03125 L 1005.25 583.875 L 914.75 583.625 L 914.75 574.8125 z M 986.96875 588.46875 L 986.96875 618.71875 L 960.21875 603.90625 L 933.03125 619.59375 L 933.03125 588.84375 L 960.21875 603.90625 L 986.96875 588.46875 z "
           transform="matrix(1.4432661,0,0,1.4432661,-1019.8378,-372.1867)"
           id="path3031-6-2-7-7-8" />
      </g>
    </g>
  </g>
</svg>
