<?xml version="1.0" encoding="UTF-8" standalone="no"?>
<!-- Created with Inkscape (http://www.inkscape.org/) -->

<svg
   xmlns:dc="http://purl.org/dc/elements/1.1/"
   xmlns:cc="http://creativecommons.org/ns#"
   xmlns:rdf="http://www.w3.org/1999/02/22-rdf-syntax-ns#"
   xmlns:svg="http://www.w3.org/2000/svg"
   xmlns="http://www.w3.org/2000/svg"
   xmlns:xlink="http://www.w3.org/1999/xlink"
   xmlns:sodipodi="http://sodipodi.sourceforge.net/DTD/sodipodi-0.dtd"
   xmlns:inkscape="http://www.inkscape.org/namespaces/inkscape"
   width="640"
   height="480"
   id="svg2"
   version="1.1"
   inkscape:version="0.91 r13725"
   sodipodi:docname="splash.svg">
  <sodipodi:namedview
     id="base"
     pagecolor="#ffffff"
     bordercolor="#666666"
     borderopacity="1.0"
     inkscape:pageopacity="0.0"
     inkscape:pageshadow="2"
     inkscape:zoom="1.6514684"
     inkscape:cx="284.90158"
     inkscape:cy="184.3591"
     inkscape:document-units="px"
     inkscape:current-layer="layer1-7"
     showgrid="false"
     inkscape:window-width="1024"
     inkscape:window-height="743"
     inkscape:window-x="0"
     inkscape:window-y="25"
     inkscape:window-maximized="1"
     borderlayer="true"
     inkscape:showpageshadow="false" />
  <defs
     id="defs4">
    <linearGradient
       y2="375.87961"
       x2="113.64215"
       y1="416.38858"
       x1="70.491508"
       spreadMethod="pad"
       gradientTransform="translate(0,80)"
       gradientUnits="userSpaceOnUse"
       id="linearGradient3050"
       xlink:href="#linearGradient3431"
       inkscape:collect="always" />
    <linearGradient
       y2="408.57144"
       x2="116.42857"
       y1="362.14285"
       x1="61.42857"
       gradientTransform="matrix(2.7085493,0,0,2.7085493,543.08426,-420.26637)"
       gradientUnits="userSpaceOnUse"
       id="linearGradient3048"
       xlink:href="#linearGradient3312"
       inkscape:collect="always" />
    <linearGradient
       id="linearGradient3312">
      <stop
         id="stop3314"
         offset="0"
         style="stop-color:#c7f994;stop-opacity:1;" />
      <stop
         id="stop3316"
         offset="1"
         style="stop-color:#87cf3e;stop-opacity:1;" />
    </linearGradient>
    <linearGradient
       id="linearGradient3431">
      <stop
         style="stop-color:#3d3d3d;stop-opacity:1;"
         offset="0"
         id="stop3433" />
      <stop
         style="stop-color:#000000;stop-opacity:0.11400651;"
         offset="1"
         id="stop3435" />
    </linearGradient>
    <inkscape:perspective
       sodipodi:type="inkscape:persp3d"
       inkscape:vp_x="0 : 0.5 : 1"
       inkscape:vp_y="0 : 1000 : 0"
       inkscape:vp_z="1 : 0.5 : 1"
       inkscape:persp3d-origin="0.5 : 0.33333333 : 1"
       id="perspective2955" />
    <inkscape:perspective
       id="perspective2988"
       inkscape:persp3d-origin="372.04724 : 350.78739 : 1"
       inkscape:vp_z="744.09448 : 526.18109 : 1"
       inkscape:vp_y="0 : 1000 : 0"
       inkscape:vp_x="0 : 526.18109 : 1"
       sodipodi:type="inkscape:persp3d" />
  </defs>
  <metadata
     id="metadata7">
    <rdf:RDF>
      <cc:Work
         rdf:about="">
        <dc:format>image/svg+xml</dc:format>
        <dc:type
           rdf:resource="http://purl.org/dc/dcmitype/StillImage" />
        <dc:title />
      </cc:Work>
    </rdf:RDF>
  </metadata>
  <g
     inkscape:label="Capa 1"
     inkscape:groupmode="layer"
     id="layer1"
     transform="translate(0,-572.36218)">
    <rect
       y="572.36218"
       x="0"
       height="480"
       width="640"
       id="rect2996"
       style="fill:#493557;fill-opacity:1;fill-rule:evenodd;stroke:none" />
    <g
       transform="matrix(0.78202884,0,0,0.78202884,31.54911,480.01799)"
       id="layer1-5"
       inkscape:label="Layer 1"
       style="fill:#c9c3cd;fill-opacity:1">
      <g
         id="g4221"
         transform="translate(4.3022167,-0.33025212)"
         style="fill:#c9c3cd;fill-opacity:1">
        <path
           style="fill:#c9c3cd;fill-opacity:1;stroke:none"
           d="m 951.40625,390.15625 c -34.2424,1.35515 -66.35273,11.57376 -94.3125,28.53125 l 18.25,48.53125 L 839.40625,430.75 C 815.70119,448.77209 795.8258,472.00619 781.25,498.875 L 847.78125,549.96875 767.0625,530.875 c -7.62937,21.72669 -12.06024,45.0942 -12.625,69.5 l 133.03125,2.75 79.5625,111.84375 69.40625,-111.0625 127.5313,-1.375 c -0.2453,-17.68729 -2.5141,-34.86815 -6.5626,-51.28125 l -56.6562,15.96875 48.625,-41.6875 c -12.4707,-32.82441 -32.377,-61.67571 -57.5312,-84.21875 l -43.4688,43.75 21.875,-60.65625 c -26.6908,-18.16507 -57.6607,-29.94679 -91,-33.34375 l -18.9375,63.0625 -8.90625,-63.96875 z M 1055.5625,525.6875 c 10.0971,0 18.2813,8.18412 18.2813,18.28125 0,10.09713 -8.1842,18.28125 -18.2813,18.28125 -10.0971,0 -18.2813,-8.18412 -18.2813,-18.28125 0,-10.09713 8.1842,-18.28125 18.2813,-18.28125 z m -180.59375,0.6875 c 10.48548,0 18.96875,7.88497 18.96875,17.59375 0,9.70878 -8.48327,17.5625 -18.96875,17.5625 -10.48548,0 -19,-7.85372 -19,-17.5625 0,-9.70878 8.51452,-17.59375 19,-17.59375 z m 39.78125,48.4375 90.5312,0.21875 -0.031,8.84375 -90.5,-0.25 0,-8.8125 z m 72.21875,13.65625 0,30.25 -26.75,-14.8125 -27.1875,15.6875 0,-30.75 27.1875,15.0625 26.75,-15.4375 z"
           transform="matrix(1.4432661,0,0,1.4432661,-1019.8378,-372.1867)"
           id="path3031-6-2-7-7-8"
           inkscape:connector-curvature="0" />
      </g>
    </g>
    <g
       style="opacity:1;display:inline"
       inkscape:label="Capa 1"
       id="layer1-7"
       transform="matrix(-0.28859265,0,0,0.28859265,102.94174,712.94251)" />
  </g>
</svg>
